<?xml version="1.0" standalone="no"?>
<!DOCTYPE svg PUBLIC "-//W3C//DTD SVG 20010904//EN"
 "http://www.w3.org/TR/2001/REC-SVG-20010904/DTD/svg10.dtd">
<svg version="1.0" xmlns="http://www.w3.org/2000/svg"
 width="512.000000pt" height="512.000000pt" viewBox="0 0 512.000000 512.000000"
 preserveAspectRatio="xMidYMid meet">
<metadata>
Created by potrace 1.16, written by Peter Selinger 2001-2019
</metadata>
<g transform="translate(0.000000,512.000000) scale(0.100000,-0.100000)"
fill="#000000" stroke="none">
<path d="M4492 5095 c-30 -25 -34 -26 -50 -12 -40 36 -119 25 -136 -18 -11
-30 -6 -80 10 -104 16 -22 15 -24 -22 -62 l-38 -39 -21 20 c-28 27 -88 27
-115 0 -32 -32 -36 -69 -13 -111 l20 -37 -38 -38 c-36 -35 -40 -36 -56 -22
-29 26 -68 31 -101 14 -50 -26 -58 -89 -17 -142 l25 -33 -59 -119 -59 -118
-442 -426 -442 -425 -66 45 c-362 242 -736 234 -1019 -22 -77 -71 -128 -146
-182 -272 -106 -246 -149 -314 -236 -374 -61 -42 -96 -53 -318 -101 -216 -46
-339 -83 -454 -135 -324 -148 -581 -468 -652 -812 -16 -77 -14 -269 4 -354 61
-294 229 -573 523 -866 180 -179 327 -292 513 -391 105 -56 271 -115 369 -130
93 -15 267 -13 347 4 334 71 652 329 797 648 52 115 89 238 135 454 48 222 59
257 101 318 56 82 146 142 307 206 153 60 234 109 313 189 281 281 299 667 48
1042 l-45 66 425 442 425 441 119 60 119 59 33 -25 c53 -41 116 -33 142 17 17
33 12 72 -14 101 -14 16 -13 20 22 56 l38 38 37 -20 c42 -23 79 -19 111 13 27
27 27 87 0 115 l-20 21 39 38 c38 37 40 38 62 22 26 -18 81 -21 109 -6 23 12
43 70 34 96 -4 10 -14 27 -22 36 -13 15 -12 21 13 50 27 32 27 34 22 138 -5
113 -19 160 -72 245 -52 83 -131 152 -225 198 -79 38 -91 41 -190 45 -103 4
-106 4 -138 -23z m254 -180 c61 -30 148 -118 174 -177 10 -24 22 -65 25 -93
l6 -50 -243 -240 -243 -240 -113 -55 -112 -54 -117 117 -117 117 54 112 55
113 240 243 240 243 50 -6 c28 -3 73 -17 101 -30z m-752 -924 l100 -100 -206
-213 c-113 -117 -415 -431 -672 -698 -256 -267 -470 -486 -474 -487 -4 -2 -20
20 -37 48 -35 59 -113 136 -173 170 -23 13 -41 27 -39 31 3 9 1390 1347 1397
1348 3 0 50 -45 104 -99z m-1481 -545 c62 -17 176 -70 248 -117 l47 -30 -260
-252 -260 -252 -62 -7 c-247 -29 -423 -173 -480 -395 -87 -334 166 -664 509
-663 283 1 499 198 532 487 l8 71 249 256 c136 141 251 256 255 256 12 0 86
-131 114 -201 77 -192 74 -347 -9 -499 -80 -145 -160 -212 -351 -290 -172 -71
-255 -120 -335 -201 -106 -107 -130 -165 -194 -464 -41 -195 -72 -297 -120
-402 -133 -293 -422 -518 -724 -564 -209 -32 -483 56 -740 238 -138 98 -425
387 -525 528 -183 261 -268 525 -236 735 46 303 270 591 564 724 105 48 207
79 402 120 305 65 362 90 470 200 79 81 127 163 200 340 54 130 108 212 176
268 64 52 166 105 234 123 72 18 204 14 288 -9z m-101 -870 c69 -35 128 -93
165 -166 25 -49 28 -66 28 -150 0 -114 -18 -162 -92 -241 -109 -117 -271 -146
-412 -74 -219 110 -261 400 -84 566 84 79 142 100 258 96 63 -3 92 -9 137 -31z"/>
<path d="M832 1734 c-33 -23 -45 -60 -32 -98 12 -39 792 -820 833 -836 57 -21
117 22 117 84 0 27 -47 78 -418 448 -449 450 -441 443 -500 402z"/>
</g>
</svg>
