<?xml version="1.0" standalone="no"?>
<!DOCTYPE svg PUBLIC "-//W3C//DTD SVG 20010904//EN"
 "http://www.w3.org/TR/2001/REC-SVG-20010904/DTD/svg10.dtd">
<svg version="1.0" xmlns="http://www.w3.org/2000/svg"
 width="512.000000pt" height="512.000000pt" viewBox="0 0 512.000000 512.000000"
 preserveAspectRatio="xMidYMid meet">
<metadata>
Created by potrace 1.16, written by Peter Selinger 2001-2019
</metadata>
<g transform="translate(0.000000,512.000000) scale(0.100000,-0.100000)"
fill="#000000" stroke="none">
<path d="M1013 5095 c-180 -91 -170 -354 17 -433 49 -20 139 -18 191 5 127 57
176 221 102 342 -64 102 -202 141 -310 86z m157 -155 c31 -31 36 -68 13 -98
-37 -50 -122 -36 -137 23 -18 69 74 125 124 75z"/>
<path d="M650 4890 l0 -80 75 0 75 0 0 80 0 80 -75 0 -75 0 0 -80z"/>
<path d="M4620 4648 l0 -323 -78 0 c-88 -1 -121 -14 -177 -72 -89 -91 -81
-256 17 -338 48 -41 90 -55 160 -55 75 0 135 26 178 78 56 68 60 98 60 504 l0
368 40 0 c34 0 40 -3 40 -21 0 -12 10 -39 22 -60 30 -54 85 -79 171 -79 l67 0
0 80 0 80 -48 0 -47 0 -18 50 c-12 33 -30 59 -54 77 -35 27 -40 28 -185 31
l-148 3 0 -323z m-21 -504 c25 -32 26 -46 6 -84 -17 -32 -51 -46 -90 -36 -22
6 -55 50 -55 75 0 5 12 23 26 40 34 41 83 43 113 5z"/>
<path d="M0 4085 l0 -875 275 0 275 0 0 875 0 875 -275 0 -275 0 0 -875z m390
0 l0 -715 -115 0 -115 0 0 715 0 715 115 0 115 0 0 -715z"/>
<path d="M1430 4880 l0 -80 1043 -2 1042 -3 50 -27 c100 -53 167 -155 178
-271 l6 -58 -31 26 c-71 60 -160 90 -289 101 l-89 7 0 -80 0 -80 76 -7 c103
-10 171 -37 227 -91 61 -60 90 -124 95 -205 l4 -65 -23 22 c-62 57 -208 102
-331 103 l-48 0 0 -79 0 -78 81 -6 c146 -10 254 -83 299 -204 11 -30 20 -65
20 -79 l0 -24 -42 21 c-96 49 -82 49 -1085 49 l-943 0 0 -80 0 -80 953 -2 954
-3 49 -30 c30 -19 60 -49 79 -79 27 -44 30 -59 34 -144 l3 -95 -28 20 c-47 33
-115 65 -169 79 -40 11 -233 14 -962 14 l-913 0 0 -80 0 -80 923 -2 922 -3 50
-27 c108 -57 169 -156 180 -293 11 -138 49 -227 134 -318 77 -83 216 -147 319
-147 l32 0 0 79 0 78 -49 6 c-27 3 -72 17 -99 31 -55 28 -135 110 -151 157
-10 28 -9 30 12 23 57 -18 99 -24 190 -24 l97 0 0 79 0 79 -108 4 c-96 3 -113
6 -145 28 -61 42 -77 83 -77 194 0 53 2 96 4 96 2 0 23 -8 47 -17 36 -14 91
-17 317 -21 l272 -4 0 81 0 81 -242 0 c-253 1 -296 7 -340 47 -35 31 -50 73
-56 156 -5 76 -4 80 14 72 83 -34 103 -35 656 -35 l548 0 0 80 0 80 -540 0
c-587 0 -579 -1 -632 56 -36 39 -48 91 -48 207 l0 97 50 -34 c64 -44 146 -75
221 -83 l59 -6 0 82 0 81 -30 0 c-51 0 -142 41 -190 86 -62 58 -91 119 -102
218 -24 213 -94 334 -243 424 -106 64 -68 62 -1204 62 l-1031 0 0 -80z"/>
<path d="M2550 4522 l0 -198 -68 0 c-159 -2 -270 -128 -242 -276 13 -66 32
-100 82 -142 109 -93 276 -66 353 58 l30 49 3 279 3 278 200 0 199 0 0 -123 0
-123 -68 0 c-194 0 -308 -181 -220 -352 83 -161 330 -161 415 0 l28 53 3 348
3 347 -361 0 -360 0 0 -198z m-17 -384 c21 -25 22 -50 2 -87 -24 -47 -69 -55
-109 -18 -44 39 -35 100 17 122 38 16 65 11 90 -17z m531 21 c36 -17 52 -61
36 -99 -16 -39 -43 -53 -86 -45 -45 8 -74 60 -56 100 9 20 52 49 79 55 1 0 13
-5 27 -11z"/>
<path d="M650 4440 l0 -80 910 0 910 0 0 80 0 80 -910 0 -910 0 0 -80z"/>
<path d="M1440 3848 l0 -323 -78 0 c-65 0 -84 -4 -122 -27 -107 -63 -148 -193
-96 -303 43 -91 116 -137 216 -137 94 0 159 38 207 120 l28 47 3 393 3 392 38
0 c36 0 39 -2 44 -34 13 -81 77 -126 177 -126 l60 0 0 80 0 80 -40 0 c-37 0
-40 2 -49 38 -27 98 -76 121 -258 122 l-133 0 0 -322z m-21 -504 c26 -33 26
-50 2 -90 -31 -51 -93 -50 -127 0 -49 75 70 160 125 90z"/>
<path d="M650 4050 l0 -80 360 0 360 0 0 80 0 80 -360 0 -360 0 0 -80z"/>
<path d="M2000 4050 l0 -80 80 0 80 0 0 80 0 80 -80 0 -80 0 0 -80z"/>
<path d="M4860 4050 l0 -80 130 0 130 0 0 80 0 80 -130 0 -130 0 0 -80z"/>
<path d="M650 3640 l0 -80 360 0 360 0 0 80 0 80 -360 0 -360 0 0 -80z"/>
<path d="M4755 3506 c-60 -28 -87 -56 -114 -116 -39 -85 -23 -182 41 -254 126
-144 367 -81 407 105 42 196 -153 351 -334 265z m152 -158 c50 -54 20 -128
-51 -128 -25 0 -40 7 -55 26 -28 35 -26 69 4 99 31 32 75 33 102 3z"/>
<path d="M650 3290 l0 -80 195 0 195 0 0 80 0 80 -195 0 -195 0 0 -80z"/>
<path d="M4310 2115 l0 -905 75 0 75 0 0 905 0 905 -75 0 -75 0 0 -905z"/>
<path d="M480 1965 l0 -1015 -75 0 -75 0 0 775 0 775 40 0 40 0 0 80 0 80
-120 0 -120 0 0 -855 0 -855 -85 0 -85 0 0 -80 0 -80 165 0 165 0 0 -125 0
-125 1425 0 1425 0 0 125 0 125 165 0 165 0 0 80 0 80 -80 0 -80 0 0 855 0
855 -125 0 -125 0 0 -80 0 -80 45 0 45 0 0 -775 0 -775 -80 0 -80 0 0 1015 0
1015 -1275 0 -1275 0 0 -1015z m1190 795 l0 -60 75 0 75 0 0 60 0 60 525 0
525 0 0 -935 0 -935 -525 0 -525 0 0 45 0 45 -75 0 -75 0 0 -45 0 -45 -515 0
-515 0 0 935 0 935 515 0 515 0 0 -60z m1360 -2015 l0 -45 -1275 0 -1275 0 0
45 0 45 1275 0 1275 0 0 -45z"/>
<path d="M1670 1870 l0 -760 75 0 75 0 0 760 0 760 -75 0 -75 0 0 -760z"/>
<path d="M800 2540 l0 -80 360 0 360 0 0 80 0 80 -360 0 -360 0 0 -80z"/>
<path d="M2000 2540 l0 -80 355 0 355 0 0 80 0 80 -355 0 -355 0 0 -80z"/>
<path d="M800 2290 l0 -80 245 0 245 0 0 80 0 80 -245 0 -245 0 0 -80z"/>
<path d="M1370 2290 l0 -80 75 0 75 0 0 80 0 80 -75 0 -75 0 0 -80z"/>
<path d="M2000 2290 l0 -80 355 0 355 0 0 80 0 80 -355 0 -355 0 0 -80z"/>
<path d="M800 2050 l0 -80 360 0 360 0 0 80 0 80 -360 0 -360 0 0 -80z"/>
<path d="M2000 2050 l0 -80 355 0 355 0 0 80 0 80 -355 0 -355 0 0 -80z"/>
<path d="M800 1830 l0 -80 360 0 360 0 0 80 0 80 -360 0 -360 0 0 -80z"/>
<path d="M2000 1830 l0 -80 355 0 355 0 0 80 0 80 -355 0 -355 0 0 -80z"/>
<path d="M800 1580 l0 -80 80 0 80 0 0 80 0 80 -80 0 -80 0 0 -80z"/>
<path d="M1040 1580 l0 -80 240 0 240 0 0 80 0 80 -240 0 -240 0 0 -80z"/>
<path d="M2000 1580 l0 -80 235 0 235 0 0 80 0 80 -235 0 -235 0 0 -80z"/>
<path d="M2550 1580 l0 -80 80 0 80 0 0 80 0 80 -80 0 -80 0 0 -80z"/>
<path d="M800 1340 l0 -80 360 0 360 0 0 80 0 80 -360 0 -360 0 0 -80z"/>
<path d="M2000 1340 l0 -80 355 0 355 0 0 80 0 80 -355 0 -355 0 0 -80z"/>
<path d="M1370 1110 l0 -80 75 0 75 0 0 80 0 80 -75 0 -75 0 0 -80z"/>
<path d="M2550 1110 l0 -80 80 0 80 0 0 80 0 80 -80 0 -80 0 0 -80z"/>
<path d="M4540 2850 l0 -80 290 0 290 0 0 80 0 80 -290 0 -290 0 0 -80z"/>
<path d="M4540 2460 l0 -80 290 0 290 0 0 80 0 80 -290 0 -290 0 0 -80z"/>
<path d="M4310 1055 l0 -85 75 0 75 0 0 85 0 85 -75 0 -75 0 0 -85z"/>
<path d="M4300 786 c0 -87 -2 -95 -26 -120 -22 -22 -36 -26 -81 -26 l-55 0 4
-232 c3 -204 5 -237 22 -268 47 -90 118 -134 216 -134 79 0 132 25 182 84 52
61 58 92 58 334 l0 216 -52 0 c-88 1 -108 30 -108 154 l0 86 -80 0 -80 0 0
-94z m160 -432 c0 -125 -1 -135 -23 -160 -30 -35 -79 -37 -110 -5 -20 20 -22
33 -25 160 l-3 138 42 25 42 25 38 -25 39 -26 0 -132z"/>
<path d="M1370 400 l0 -80 150 0 150 0 0 -45 0 -45 75 0 75 0 0 45 0 45 170 0
170 0 0 80 0 80 -395 0 -395 0 0 -80z"/>
<path d="M1670 85 l0 -85 75 0 75 0 0 85 0 85 -75 0 -75 0 0 -85z"/>
</g>
</svg>
