<?xml version="1.0" standalone="no"?>
<!DOCTYPE svg PUBLIC "-//W3C//DTD SVG 20010904//EN"
 "http://www.w3.org/TR/2001/REC-SVG-20010904/DTD/svg10.dtd">
<svg version="1.0" xmlns="http://www.w3.org/2000/svg"
 width="512.000000pt" height="512.000000pt" viewBox="0 0 512.000000 512.000000"
 preserveAspectRatio="xMidYMid meet">
<metadata>
Created by potrace 1.16, written by Peter Selinger 2001-2019
</metadata>
<g transform="translate(0.000000,512.000000) scale(0.100000,-0.100000)"
fill="#000000" stroke="none">
<path d="M1743 4965 c-178 -85 -334 -155 -348 -155 -19 0 -30 9 -43 33 -33 62
-133 152 -197 177 -82 31 -197 32 -277 1 -80 -31 -159 -105 -200 -189 -30 -60
-33 -75 -33 -157 0 -65 5 -105 20 -143 14 -40 17 -57 9 -70 -6 -9 -160 -89
-343 -176 -182 -88 -331 -164 -331 -170 0 -6 70 -156 155 -333 85 -177 155
-334 155 -347 0 -20 -12 -33 -53 -59 -120 -77 -180 -184 -180 -322 0 -107 27
-177 99 -254 102 -110 249 -148 395 -101 51 17 76 20 87 13 9 -5 88 -159 177
-343 88 -183 162 -333 166 -334 3 0 141 64 308 144 292 140 302 146 296 170
-4 14 -9 68 -12 120 -4 80 -2 105 17 160 76 227 302 368 529 330 108 -18 197
-67 273 -149 l64 -69 299 144 c165 79 304 145 308 147 4 1 -65 152 -153 335
-88 183 -160 343 -160 356 0 18 12 32 48 54 141 86 213 241 183 393 -17 82
-42 131 -102 195 -98 102 -238 137 -383 94 -55 -17 -83 -21 -94 -14 -8 6 -87
159 -175 342 -88 183 -165 332 -171 332 -6 0 -156 -70 -333 -155z"/>
<path d="M3563 2496 c-125 -41 -216 -151 -230 -279 -3 -28 -12 -62 -19 -74
l-14 -23 -345 0 -345 0 0 -338 c0 -393 4 -376 -89 -386 -154 -18 -275 -132
-300 -282 -31 -194 96 -366 289 -392 106 -15 100 7 100 -384 l0 -338 308 0
308 0 12 46 c61 227 282 374 502 335 97 -18 176 -60 242 -129 60 -63 100 -133
119 -206 l11 -46 309 0 309 0 0 338 c0 257 3 342 13 356 8 11 36 20 80 26 120
17 219 86 269 188 33 68 37 196 9 273 -43 115 -156 201 -282 215 -93 10 -89
-7 -89 386 l0 338 -343 0 c-393 0 -370 -5 -380 91 -10 109 -85 217 -184 265
-67 33 -191 43 -260 20z"/>
</g>
</svg>
