<?xml version="1.0" standalone="no"?>
<!DOCTYPE svg PUBLIC "-//W3C//DTD SVG 20010904//EN"
 "http://www.w3.org/TR/2001/REC-SVG-20010904/DTD/svg10.dtd">
<svg version="1.0" xmlns="http://www.w3.org/2000/svg"
 width="512.000000pt" height="512.000000pt" viewBox="0 0 512.000000 512.000000"
 preserveAspectRatio="xMidYMid meet">
<metadata>
Created by potrace 1.16, written by Peter Selinger 2001-2019
</metadata>
<g transform="translate(0.000000,512.000000) scale(0.100000,-0.100000)"
fill="#000000" stroke="none">
<path d="M4224 5100 c-21 -13 -66 -78 -133 -190 -56 -94 -104 -170 -107 -170
-36 0 -374 -64 -394 -75 -37 -19 -67 -59 -82 -106 -21 -72 -1 -109 134 -246
66 -67 119 -126 117 -131 -2 -6 -44 17 -94 50 -246 163 -568 282 -868 318
-147 19 -474 8 -609 -19 -624 -125 -1136 -510 -1416 -1066 -146 -289 -213
-569 -213 -899 0 -321 56 -579 186 -852 l53 -112 -77 -22 c-135 -40 -185 -75
-222 -155 -17 -37 -19 -72 -19 -427 0 -214 -2 -388 -4 -388 -2 0 -23 7 -46 15
-23 8 -73 15 -111 15 -187 0 -319 -132 -319 -320 0 -184 121 -310 305 -318
106 -5 177 21 245 88 88 89 90 102 90 523 l0 362 255 78 256 78 72 -64 c79
-70 224 -180 269 -203 24 -12 28 -21 28 -54 0 -22 -2 -40 -4 -40 -2 0 -23 7
-46 15 -62 22 -168 19 -235 -6 -207 -77 -264 -369 -105 -529 68 -67 139 -93
245 -88 96 4 159 31 222 95 70 73 83 123 83 329 l0 174 41 -20 c133 -69 371
-138 558 -164 146 -21 416 -21 562 0 880 122 1581 823 1703 1703 20 142 21
422 1 560 -41 290 -154 583 -318 829 l-74 111 74 32 c41 18 80 32 87 32 8 0
116 -44 241 -97 205 -88 233 -98 275 -94 27 3 61 15 80 28 36 25 69 90 70 133
0 15 -27 105 -59 201 l-59 173 115 114 c63 63 121 126 129 141 22 43 18 129
-9 168 -36 54 -70 67 -266 100 -101 17 -187 33 -191 35 -4 3 -49 74 -99 158
-117 197 -131 210 -219 215 -54 2 -73 -1 -98 -18z m323 -503 c25 -14 337 -76
387 -77 6 0 -40 -51 -102 -113 -110 -112 -142 -160 -142 -215 0 -15 25 -101
55 -192 30 -90 53 -165 52 -167 -2 -1 -103 40 -224 92 -146 63 -234 95 -258
95 -24 0 -112 -32 -258 -95 -121 -52 -222 -93 -225 -91 -2 3 22 82 53 176 76
232 79 218 -82 381 l-124 126 186 31 c114 19 198 38 218 49 22 14 59 65 131
185 l100 166 100 -166 c73 -120 110 -171 133 -185z m-1727 -223 c270 -39 513
-132 740 -283 156 -104 144 -85 114 -172 -29 -86 -28 -155 3 -197 57 -76 132
-90 240 -44 l71 30 55 -76 c124 -173 212 -350 271 -545 59 -198 71 -285 71
-537 0 -196 -3 -239 -23 -335 -77 -370 -249 -691 -507 -950 -378 -377 -883
-566 -1422 -533 -217 13 -451 75 -656 172 l-97 47 0 327 0 328 -26 52 c-31 62
-87 106 -156 122 -64 16 -87 12 -318 -60 -107 -33 -200 -60 -207 -60 -17 0
-109 195 -153 327 -75 227 -102 442 -88 695 24 430 218 858 533 1173 411 411
983 601 1555 519z m-1334 -2777 c24 -21 27 -32 31 -98 l5 -74 -433 -133 c-239
-73 -438 -133 -443 -132 -4 0 -7 43 -4 95 3 78 8 99 23 115 18 17 733 247 777
249 9 1 29 -9 44 -22z m34 -453 l0 -96 -81 64 c-45 34 -81 68 -81 73 0 9 121
53 150 54 9 1 12 -25 12 -95z m-82 -534 c130 -79 74 -280 -78 -280 -152 0
-208 201 -78 280 43 26 113 26 156 0z m-1040 -160 c69 -42 94 -139 52 -208
-79 -130 -280 -74 -280 78 0 116 129 190 228 130z"/>
<path d="M2275 4220 c-285 -51 -521 -152 -740 -318 -137 -105 -305 -287 -399
-434 -139 -219 -238 -518 -253 -766 -6 -87 -5 -94 17 -117 23 -25 68 -33 105
-19 24 9 45 58 45 103 0 69 38 264 70 361 90 267 252 510 452 678 255 214 526
327 863 361 102 10 125 27 125 90 0 60 -30 81 -116 80 -38 0 -114 -9 -169 -19z"/>
<path d="M2230 3885 c-122 -32 -144 -48 -148 -107 -3 -40 1 -49 24 -67 34 -26
38 -26 159 4 55 13 117 27 138 30 52 8 77 36 77 85 0 85 -71 101 -250 55z"/>
<path d="M1845 3724 c-297 -179 -521 -484 -609 -830 -31 -122 -12 -174 63
-174 58 0 77 23 101 119 57 228 152 394 319 562 59 59 134 120 193 159 107 69
125 96 106 150 -21 62 -85 67 -173 14z"/>
<path d="M2418 3420 c-345 -63 -603 -297 -700 -637 -32 -112 -32 -334 0 -446
94 -329 340 -560 667 -628 486 -101 959 228 1036 721 15 98 6 265 -21 358 -85
303 -308 526 -612 612 -82 24 -290 35 -370 20z m301 -180 c130 -31 231 -89
332 -190 73 -72 94 -101 132 -180 102 -211 102 -409 0 -620 -38 -79 -59 -108
-132 -180 -72 -72 -102 -94 -181 -133 -208 -102 -409 -102 -620 0 -79 38 -108
59 -180 132 -72 72 -94 102 -133 181 -102 209 -102 411 0 620 39 79 60 109
132 180 179 179 413 247 650 190z"/>
<path d="M2425 2973 c-121 -44 -205 -118 -258 -231 -30 -63 -32 -74 -32 -183
0 -113 1 -116 38 -191 45 -91 112 -157 207 -202 61 -29 72 -31 180 -31 109 0
119 2 183 32 89 42 168 121 210 210 30 64 32 74 32 183 0 109 -2 119 -32 182
-44 94 -109 160 -201 206 -70 34 -83 37 -176 40 -77 2 -113 -2 -151 -15z m222
-164 c52 -19 102 -61 135 -112 30 -47 33 -58 33 -132 0 -91 -15 -132 -72 -188
-56 -57 -97 -72 -188 -72 -74 0 -85 3 -132 33 -75 48 -114 114 -121 203 -3 51
0 81 12 113 21 55 84 122 139 147 47 21 148 25 194 8z"/>
<path d="M3771 2461 c-11 -11 -23 -37 -26 -58 -43 -260 -146 -475 -312 -652
-95 -102 -158 -152 -274 -220 -110 -65 -119 -74 -119 -117 0 -48 14 -70 52
-83 30 -11 40 -8 113 28 157 78 336 231 452 388 172 232 306 640 233 713 -27
27 -93 27 -119 1z"/>
<path d="M2815 1394 c-33 -6 -77 -15 -98 -18 -21 -4 -47 -16 -58 -27 -27 -27
-26 -92 2 -120 19 -19 29 -21 93 -16 93 8 177 31 193 53 17 23 17 85 1 107
-21 27 -67 35 -133 21z"/>
<path d="M747 4948 c-24 -19 -35 -59 -26 -93 12 -39 34 -55 81 -55 51 0 78 27
78 80 0 53 -27 80 -78 80 -21 0 -46 -6 -55 -12z"/>
<path d="M187 4868 c-24 -19 -35 -59 -26 -93 12 -39 34 -55 81 -55 51 0 78 27
78 80 0 53 -27 80 -78 80 -21 0 -46 -6 -55 -12z"/>
<path d="M1627 4868 c-24 -19 -35 -59 -26 -93 12 -39 34 -55 81 -55 51 0 78
27 78 80 0 53 -27 80 -78 80 -21 0 -46 -6 -55 -12z"/>
<path d="M1095 4781 c-85 -39 -137 -124 -137 -221 0 -140 99 -239 240 -240
146 0 242 95 242 240 0 104 -53 187 -142 224 -52 22 -153 20 -203 -3z m155
-171 c11 -11 20 -33 20 -50 0 -17 -9 -39 -20 -50 -43 -43 -120 -11 -120 50 0
38 32 70 70 70 17 0 39 -9 50 -20z"/>
<path d="M279 4461 c-257 -101 -272 -469 -24 -591 42 -21 64 -25 145 -25 111
0 162 19 229 86 67 67 86 118 86 229 0 81 -4 103 -25 145 -33 68 -99 129 -166
154 -70 27 -180 27 -245 2z m196 -170 c71 -40 97 -139 55 -209 -79 -129 -280
-74 -280 76 0 72 36 123 107 147 42 15 73 11 118 -14z"/>
<path d="M900 4140 c-13 -13 -20 -33 -20 -60 0 -53 27 -80 80 -80 53 0 80 27
80 80 0 53 -27 80 -80 80 -27 0 -47 -7 -60 -20z"/>
<path d="M267 3668 c-22 -17 -37 -61 -37 -109 l0 -39 -49 0 c-65 0 -81 -7 -96
-43 -15 -35 -4 -85 22 -104 9 -7 41 -13 70 -13 l53 0 0 -32 c0 -51 19 -107 40
-118 32 -17 88 -12 110 10 16 16 20 33 20 80 l0 60 60 0 c75 0 100 20 100 80
0 60 -25 80 -100 80 l-60 0 0 60 c0 47 -4 64 -20 80 -23 23 -87 27 -113 8z"/>
<path d="M4740 2060 c-16 -16 -20 -33 -20 -80 l0 -60 -60 0 c-75 0 -100 -20
-100 -80 0 -60 25 -80 100 -80 l60 0 0 -60 c0 -75 20 -100 80 -100 60 0 80 25
80 100 l0 60 60 0 c75 0 100 20 100 80 0 60 -25 80 -100 80 l-60 0 0 60 c0 75
-20 100 -80 100 -27 0 -47 -7 -60 -20z"/>
<path d="M4420 1580 c-13 -13 -20 -33 -20 -60 0 -53 27 -80 80 -80 53 0 80 27
80 80 0 27 -7 47 -20 60 -13 13 -33 20 -60 20 -27 0 -47 -7 -60 -20z"/>
<path d="M4375 1261 c-87 -40 -135 -120 -135 -223 1 -142 97 -238 240 -238
144 0 240 96 240 240 0 104 -53 187 -142 224 -52 22 -153 20 -203 -3z m155
-171 c11 -11 20 -33 20 -50 0 -17 -9 -39 -20 -50 -43 -43 -120 -11 -120 50 0
38 32 70 70 70 17 0 39 -9 50 -20z"/>
<path d="M3869 870 c-9 -5 -45 -53 -80 -106 -59 -90 -70 -101 -166 -165 -90
-61 -103 -73 -109 -104 -9 -50 8 -71 119 -144 88 -58 100 -70 158 -158 73
-111 94 -128 144 -119 31 6 43 19 104 109 64 96 75 107 165 167 54 35 101 71
107 81 14 28 11 86 -7 104 -9 9 -57 43 -105 76 -75 50 -97 71 -140 137 -75
112 -96 132 -138 132 -20 0 -43 -5 -52 -10z m81 -276 c18 -25 54 -61 81 -81
l50 -36 -49 -33 c-27 -18 -62 -53 -78 -78 -16 -25 -32 -46 -36 -46 -3 0 -19
20 -35 45 -15 25 -49 60 -75 76 -27 17 -48 34 -48 38 0 3 21 19 46 35 25 16
60 51 77 77 18 27 33 49 34 49 1 0 16 -21 33 -46z"/>
<path d="M4820 860 c-13 -13 -20 -33 -20 -60 0 -53 27 -80 80 -80 53 0 80 27
80 80 0 53 -27 80 -80 80 -27 0 -47 -7 -60 -20z"/>
<path d="M3380 300 c-13 -13 -20 -33 -20 -60 0 -53 27 -80 80 -80 53 0 80 27
80 80 0 27 -7 47 -20 60 -13 13 -33 20 -60 20 -27 0 -47 -7 -60 -20z"/>
<path d="M4420 300 c-13 -13 -20 -33 -20 -60 0 -53 27 -80 80 -80 53 0 80 27
80 80 0 27 -7 47 -20 60 -13 13 -33 20 -60 20 -27 0 -47 -7 -60 -20z"/>
</g>
</svg>
