<?xml version="1.0" standalone="no"?>
<!DOCTYPE svg PUBLIC "-//W3C//DTD SVG 20010904//EN"
 "http://www.w3.org/TR/2001/REC-SVG-20010904/DTD/svg10.dtd">
<svg version="1.0" xmlns="http://www.w3.org/2000/svg"
 width="512.000000pt" height="512.000000pt" viewBox="0 0 512.000000 512.000000"
 preserveAspectRatio="xMidYMid meet">
<metadata>
Created by potrace 1.16, written by Peter Selinger 2001-2019
</metadata>
<g transform="translate(0.000000,512.000000) scale(0.100000,-0.100000)"
fill="#000000" stroke="none">
<path d="M2240 5105 c-389 -48 -766 -188 -1091 -404 -504 -335 -871 -825
-1043 -1395 -41 -132 -81 -333 -96 -468 -13 -125 -13 -431 0 -556 108 -1014
825 -1880 1804 -2176 132 -41 333 -81 468 -96 125 -13 431 -13 556 0 592 63
1141 332 1563 766 289 299 494 645 613 1038 74 244 106 468 106 748 0 460
-110 881 -331 1266 -408 710 -1108 1176 -1919 1277 -151 18 -480 18 -630 0z
m-212 -555 l432 -171 0 -429 0 -428 -418 -334 -417 -335 -429 143 c-236 79
-431 145 -433 148 -3 3 -44 171 -92 375 l-88 371 47 64 c165 226 378 431 609
586 107 71 331 192 346 186 6 -2 205 -81 443 -176z m1624 123 c324 -165 619
-418 838 -719 l47 -64 -88 -371 c-48 -204 -89 -372 -92 -375 -2 -3 -197 -69
-433 -148 l-429 -143 -417 335 -418 334 0 428 0 428 438 176 c240 96 438 175
440 176 2 0 53 -25 114 -57z m-2507 -1863 l420 -140 124 -495 c68 -272 121
-501 118 -509 -4 -10 -373 -509 -401 -542 -1 -1 -189 28 -419 65 l-418 66 -41
64 c-56 88 -149 277 -192 388 -64 168 -126 414 -141 563 l-6 65 256 308 c141
169 262 307 268 307 7 0 201 -63 432 -140z m3531 -167 l256 -307 -7 -66 c-31
-295 -157 -659 -323 -935 l-48 -79 -417 -66 -418 -66 -200 265 c-111 145 -203
270 -206 278 -3 7 50 236 118 508 l124 495 415 139 c228 77 423 140 432 140
11 1 111 -111 274 -306z m-1318 -1366 l203 -268 -218 -382 -219 -382 -54 -12
c-164 -38 -267 -48 -510 -48 -194 0 -269 4 -362 19 -64 10 -121 22 -126 25 -5
3 -120 180 -256 393 -158 247 -245 392 -240 400 4 7 95 129 201 271 l193 257
592 -2 592 -3 204 -268z"/>
</g>
</svg>
