<?xml version="1.0" standalone="no"?>
<!DOCTYPE svg PUBLIC "-//W3C//DTD SVG 20010904//EN"
 "http://www.w3.org/TR/2001/REC-SVG-20010904/DTD/svg10.dtd">
<svg version="1.0" xmlns="http://www.w3.org/2000/svg"
 width="512.000000pt" height="512.000000pt" viewBox="0 0 512.000000 512.000000"
 preserveAspectRatio="xMidYMid meet">
<metadata>
Created by potrace 1.16, written by Peter Selinger 2001-2019
</metadata>
<g transform="translate(0.000000,512.000000) scale(0.100000,-0.100000)"
fill="#000000" stroke="none">
<path d="M4817 4638 c-4 -117 -13 -251 -21 -298 -43 -246 -156 -462 -335 -641
-161 -160 -341 -264 -559 -322 l-117 -31 -422 -4 -423 -4 0 151 0 151 -150 0
-150 0 0 -150 0 -150 -150 0 -150 0 0 150 0 150 -150 0 -150 0 0 -150 0 -150
-150 0 -150 0 0 150 0 150 -150 0 -150 0 0 -150 0 -150 -720 0 -720 0 0 -455
0 -455 354 0 354 0 -34 -64 c-101 -190 -100 -453 3 -649 41 -77 141 -191 210
-238 l43 -30 -29 -52 c-49 -88 -64 -155 -59 -276 4 -78 11 -121 27 -163 29
-75 98 -167 159 -215 43 -34 51 -46 70 -109 51 -171 196 -307 373 -349 221
-52 510 45 672 225 l47 52 47 -52 c162 -180 451 -277 672 -225 177 42 322 178
373 349 19 63 27 75 70 109 61 48 130 140 159 215 16 42 23 85 27 163 5 121
-10 188 -59 276 l-29 52 44 30 c67 47 169 163 210 240 102 194 103 458 2 648
l-34 64 56 -6 c481 -57 874 -374 1027 -828 39 -118 55 -237 62 -465 l6 -212
149 0 148 0 0 1965 0 1965 -148 0 -149 0 -6 -212z m3 -1754 l0 -745 -48 58
c-79 94 -215 217 -314 283 -123 83 -227 134 -367 180 -234 79 -115 73 -1738
77 l-1453 4 0 144 0 144 1453 4 c1626 4 1503 -2 1742 78 130 43 267 112 385
193 81 56 257 220 305 285 17 22 31 41 33 41 1 0 2 -335 2 -746z m-4220 1 l0
-145 -150 0 -150 0 0 145 0 145 150 0 150 0 0 -145z m2601 -475 c162 -50 269
-196 269 -365 0 -126 -52 -229 -155 -308 -82 -62 -149 -77 -344 -77 l-166 0
-19 62 c-11 34 -41 94 -68 134 -179 268 -523 359 -813 215 -140 -70 -249 -189
-306 -334 l-27 -72 -164 -3 c-140 -2 -172 0 -228 18 -162 49 -270 195 -270
365 0 167 107 314 265 365 57 18 101 19 1011 19 922 1 954 0 1015 -19z m-878
-613 c67 -30 125 -87 158 -153 20 -41 24 -64 24 -139 0 -75 -4 -98 -24 -139
-98 -199 -363 -244 -518 -89 -22 22 -50 62 -64 89 -30 63 -38 173 -16 238 63
185 265 273 440 193z m-724 -524 c35 -88 103 -186 173 -248 52 -45 196 -125
225 -125 37 0 -23 -115 -98 -190 -92 -92 -256 -148 -356 -122 -61 17 -97 44
-128 96 -22 37 -25 54 -25 137 l0 94 -67 24 c-38 13 -80 32 -95 43 -81 57
-103 184 -49 270 51 81 98 97 264 95 l129 -2 27 -72z m1526 51 c93 -48 132
-172 85 -269 -28 -57 -66 -87 -152 -117 l-68 -23 0 -89 c0 -140 -44 -208 -153
-237 -100 -27 -263 28 -356 121 -75 75 -135 190 -98 190 8 0 50 18 93 40 160
80 259 199 327 393 6 17 19 18 144 15 116 -2 144 -6 178 -24z"/>
</g>
</svg>
