<?xml version="1.0" standalone="no"?>
<!DOCTYPE svg PUBLIC "-//W3C//DTD SVG 20010904//EN"
 "http://www.w3.org/TR/2001/REC-SVG-20010904/DTD/svg10.dtd">
<svg version="1.0" xmlns="http://www.w3.org/2000/svg"
 width="512.000000pt" height="512.000000pt" viewBox="0 0 512.000000 512.000000"
 preserveAspectRatio="xMidYMid meet">
<metadata>
Created by potrace 1.16, written by Peter Selinger 2001-2019
</metadata>
<g transform="translate(0.000000,512.000000) scale(0.100000,-0.100000)"
fill="#000000" stroke="none">
<path d="M2283 5099 c-89 -44 -143 -140 -143 -254 l0 -52 -112 -6 c-289 -14
-550 -164 -717 -410 -45 -66 -106 -199 -125 -271 -8 -32 -18 -62 -23 -66 -4
-3 -37 -12 -73 -19 -212 -41 -430 -163 -526 -294 -128 -173 -81 -364 110 -453
93 -43 183 -57 342 -52 79 2 144 0 144 -5 0 -4 12 -33 27 -63 47 -96 143 -166
247 -180 l46 -7 0 -111 c0 -193 34 -341 111 -484 107 -200 257 -333 479 -423
l65 -27 3 -58 3 -59 -153 -33 c-84 -18 -156 -32 -159 -32 -4 0 -9 21 -13 46
-19 141 -136 258 -278 279 l-48 7 0 182 c0 201 -6 237 -53 298 -90 118 -268
128 -376 20 -54 -55 -71 -101 -71 -194 l0 -65 -73 1 c-61 1 -81 -3 -125 -26
l-52 -27 -47 27 c-40 22 -60 26 -120 26 l-73 -1 0 62 c0 113 -42 191 -126 237
-133 72 -290 24 -353 -106 -20 -41 -21 -58 -21 -572 0 -579 1 -586 59 -703 17
-32 73 -112 124 -177 l95 -119 -16 -30 c-21 -40 -29 -229 -12 -290 7 -25 27
-57 46 -76 l34 -33 0 -253 0 -253 2230 0 2230 0 0 253 0 253 34 33 c19 19 39
51 46 76 17 61 9 250 -12 290 l-16 30 95 119 c51 65 107 145 124 177 58 117
59 124 59 703 0 514 -1 531 -21 572 -63 130 -220 178 -353 106 -84 -46 -126
-124 -126 -237 l0 -62 -73 1 c-60 0 -80 -4 -120 -26 l-47 -27 -52 27 c-44 23
-64 27 -125 26 l-73 -1 0 72 c0 58 -5 81 -27 126 -90 176 -339 183 -440 12
-28 -48 -28 -49 -31 -249 l-3 -202 -47 -7 c-142 -21 -259 -139 -278 -279 -4
-25 -9 -46 -13 -46 -3 0 -75 14 -158 32 l-153 33 0 47 c0 45 2 48 25 48 42 0
92 26 148 77 28 27 72 62 96 78 145 97 268 257 334 435 35 92 57 235 57 365
l0 112 48 7 c218 29 345 278 244 479 l-27 54 22 71 c116 369 -20 789 -329
1022 -156 118 -318 178 -505 187 l-113 6 0 52 c0 115 -54 211 -144 254 -39 19
-61 21 -277 21 -217 0 -237 -2 -276 -21z m492 -174 c21 -20 25 -34 25 -80 l0
-55 -240 0 -240 0 0 55 c0 46 4 60 25 80 24 25 26 25 215 25 189 0 191 0 215
-25z m-476 -324 c-117 -158 -174 -264 -225 -415 -44 -132 -69 -259 -85 -419
l-12 -127 -311 2 -311 3 -13 55 c-8 36 -11 98 -9 180 3 102 9 139 31 205 90
267 312 464 586 520 36 7 132 14 214 14 143 1 148 0 135 -18z m916 -5 c251
-70 453 -259 538 -504 26 -75 31 -105 34 -212 2 -81 -1 -144 -9 -180 l-13 -55
-311 -3 -311 -2 -12 127 c-21 221 -79 440 -159 598 -29 59 -86 148 -152 237
-14 20 -12 20 160 15 120 -3 194 -10 235 -21z m-582 -58 c180 -178 303 -480
324 -799 l6 -99 -403 0 -403 0 6 98 c15 243 97 494 220 677 42 62 160 185 177
185 5 0 38 -28 73 -62z m-1475 -786 c6 -54 22 -132 34 -172 l24 -74 -26 -48
c-23 -43 -29 -48 -70 -55 -25 -4 -97 -8 -160 -7 -130 1 -212 25 -262 75 -53
52 -35 113 59 200 68 63 152 110 267 150 126 43 120 46 134 -69z m322 -451 l0
-160 -31 9 c-82 24 -122 78 -117 161 5 64 31 108 80 132 69 34 68 35 68 -142z
m751 136 c46 -30 83 -106 75 -151 -10 -51 -46 -98 -96 -124 -43 -22 -53 -23
-240 -20 -162 3 -200 6 -227 20 -75 41 -104 142 -63 216 42 75 66 82 306 82
202 0 212 -1 245 -23z m1149 2 c21 -12 48 -39 60 -61 42 -74 12 -174 -63 -216
-47 -25 -390 -31 -453 -7 -56 21 -100 72 -109 124 -9 53 25 126 74 158 33 22
43 23 244 23 195 0 212 -1 247 -21z m343 -6 c44 -32 61 -66 65 -123 5 -82 -35
-136 -117 -160 l-31 -9 0 161 0 161 30 -7 c17 -3 41 -13 53 -23z m-1054 -267
c30 -73 108 -146 186 -175 56 -21 72 -22 300 -19 200 2 245 6 273 20 l32 16 0
-146 c0 -176 -15 -257 -69 -367 -38 -80 -107 -179 -154 -224 l-25 -23 -18 33
c-9 19 -50 68 -90 109 l-73 75 15 60 c7 33 14 111 14 173 l0 112 -500 0 -500
0 0 -110 c0 -194 39 -301 149 -411 93 -93 226 -148 356 -149 37 0 47 -7 137
-97 l98 -98 0 -141 0 -141 86 -18 85 -18 -3 -177 c-3 -169 -4 -178 -28 -213
-49 -73 -70 -77 -382 -77 -268 0 -276 1 -318 23 -30 16 -51 37 -67 67 -21 40
-23 55 -23 210 l0 167 85 18 85 18 0 136 c0 210 -19 250 -143 296 -205 77
-349 201 -440 380 -59 117 -69 165 -74 357 l-5 178 33 -18 c29 -14 70 -17 274
-20 227 -3 244 -2 300 19 75 27 163 112 190 182 l18 47 87 0 86 0 23 -54z
m209 -563 c-3 -36 -5 -38 -48 -45 -106 -18 -210 -100 -246 -194 -15 -40 -20
-44 -50 -44 -130 0 -275 134 -291 270 l-6 50 322 0 322 0 -3 -37z m-2577 -159
l24 -26 3 -344 3 -344 84 0 85 0 0 180 c0 179 0 181 25 205 32 33 74 33 106
-1 23 -25 24 -31 27 -205 l3 -179 85 0 84 0 0 180 c0 179 0 181 25 205 32 33
74 33 106 -1 23 -25 24 -31 27 -205 l3 -179 84 0 84 0 3 351 3 351 24 19 c44
36 100 19 121 -35 6 -17 10 -153 10 -357 l0 -329 85 0 85 0 0 80 c0 77 1 80
24 80 33 0 86 -39 110 -80 18 -30 21 -56 24 -175 6 -241 -11 -290 -173 -495
l-110 -139 -456 -1 -456 0 -117 147 c-174 220 -160 159 -164 766 l-3 507 25
25 c33 33 75 33 107 -1z m3630 7 l24 -19 3 -351 3 -351 84 0 84 0 3 179 c3
174 4 180 27 205 32 34 74 34 106 1 25 -24 25 -26 25 -205 l0 -180 84 0 85 0
3 179 c3 174 4 180 27 205 32 34 74 34 106 1 25 -24 25 -26 25 -205 l0 -180
85 0 84 0 3 344 3 344 24 26 c32 34 74 34 107 1 l25 -25 -3 -507 c-4 -607 10
-546 -164 -766 l-117 -147 -456 0 -456 1 -110 139 c-162 205 -179 254 -173
495 3 119 6 145 24 175 24 41 77 80 110 80 23 0 24 -3 24 -80 l0 -80 85 0 85
0 0 329 c0 204 4 340 10 357 21 54 77 71 121 35z m-979 -159 c50 -50 90 -100
94 -117 14 -56 -45 -115 -101 -101 -32 8 -205 171 -205 193 0 43 68 113 111
113 8 0 54 -40 101 -88z m-970 -884 c3 -170 5 -186 27 -233 32 -63 93 -124
156 -156 l50 -24 345 0 345 0 50 24 c63 32 124 93 156 156 22 47 24 63 27 233
4 183 4 184 25 178 12 -3 48 -11 80 -17 l57 -12 0 -693 0 -694 -740 0 -740 0
0 694 0 694 73 15 c39 8 75 15 79 16 3 0 8 -81 10 -181z m-332 -788 l0 -450
-80 0 -80 0 0 171 c0 171 0 171 25 191 47 37 55 67 55 208 0 99 -4 138 -16
161 -15 30 -15 31 28 85 24 31 47 62 53 70 5 8 11 14 12 14 2 0 3 -202 3 -450z
m1922 323 c6 -7 3 -23 -6 -42 -12 -23 -16 -62 -16 -161 0 -141 8 -171 55 -208
25 -20 25 -20 25 -191 l0 -171 -80 0 -80 0 0 451 0 451 47 -59 c25 -32 50 -63
55 -70z m-2172 -198 l0 -75 -490 0 -490 0 0 75 0 75 490 0 490 0 0 -75z m3300
0 l0 -75 -490 0 -490 0 0 75 0 75 490 0 490 0 0 -75z m-3380 -415 l0 -160
-410 0 -410 0 0 160 0 160 410 0 410 0 0 -160z m3300 0 l0 -160 -410 0 -410 0
0 160 0 160 410 0 410 0 0 -160z"/>
<path d="M2310 3880 l0 -90 250 0 250 0 0 90 0 90 -250 0 -250 0 0 -90z"/>
</g>
</svg>
