<?xml version="1.0" standalone="no"?>
<!DOCTYPE svg PUBLIC "-//W3C//DTD SVG 20010904//EN"
 "http://www.w3.org/TR/2001/REC-SVG-20010904/DTD/svg10.dtd">
<svg version="1.0" xmlns="http://www.w3.org/2000/svg"
 width="512.000000pt" height="512.000000pt" viewBox="0 0 512.000000 512.000000"
 preserveAspectRatio="xMidYMid meet">
<metadata>
Created by potrace 1.16, written by Peter Selinger 2001-2019
</metadata>
<g transform="translate(0.000000,512.000000) scale(0.100000,-0.100000)"
fill="#000000" stroke="none">
<path d="M4575 5099 c-64 -34 -736 -419 -781 -447 -65 -40 -74 -63 -74 -189
l0 -108 -543 -543 -542 -542 -44 221 c-51 256 -74 315 -152 382 -187 161 -473
86 -555 -145 -8 -24 -42 -250 -74 -502 -33 -253 -63 -463 -67 -466 -5 -4 -363
-167 -798 -361 -777 -348 -791 -354 -846 -409 -71 -70 -99 -139 -99 -244 0
-117 46 -212 132 -275 79 -58 114 -65 653 -127 l511 -58 113 -516 c66 -299
124 -539 139 -572 27 -64 93 -132 163 -170 38 -20 58 -23 149 -23 94 0 110 3
155 27 50 26 131 103 154 146 6 12 144 374 306 804 162 429 296 782 297 783 2
0 165 52 363 115 198 63 380 124 405 136 88 44 159 139 181 242 43 210 -111
406 -329 420 l-74 5 518 518 519 519 108 0 c116 0 150 10 177 54 8 11 117 201
243 421 229 400 248 440 232 502 -7 31 -351 384 -397 409 -39 20 -97 17 -143
-7z m168 -357 l108 -108 -193 -337 -192 -337 -94 0 c-62 0 -102 -5 -120 -14
-15 -8 -321 -309 -680 -669 -569 -569 -654 -658 -662 -692 -11 -47 6 -92 45
-123 26 -21 38 -22 227 -22 216 0 252 -7 283 -54 20 -29 22 -84 6 -115 -7 -11
-24 -27 -39 -35 -15 -8 -204 -70 -421 -139 -291 -93 -401 -132 -418 -150 -16
-16 -120 -278 -327 -828 -167 -442 -307 -812 -311 -821 -25 -61 -170 -62 -189
-1 -3 10 -62 272 -130 582 -69 310 -132 574 -141 588 -9 14 -31 30 -48 37 -18
7 -277 41 -575 75 -299 34 -554 66 -567 71 -34 13 -65 58 -65 96 0 69 0 69
869 459 448 201 825 375 838 387 12 11 25 29 28 38 3 9 34 241 69 515 70 545
68 537 139 563 29 12 40 12 63 0 55 -26 62 -50 134 -402 57 -280 72 -342 91
-362 29 -31 80 -45 122 -33 23 7 205 182 685 662 359 358 660 664 668 679 9
18 14 58 14 120 l0 94 333 191 c182 105 334 192 337 192 3 1 54 -48 113 -107z"/>
<path d="M1922 2353 c-41 -20 -62 -59 -62 -114 0 -41 4 -47 148 -191 l148
-148 50 0 c77 0 124 47 124 123 0 45 -32 87 -167 219 -134 132 -168 147 -241
111z"/>
<path d="M1713 2133 c-33 -6 -81 -58 -85 -91 -8 -70 0 -83 146 -228 118 -119
147 -143 179 -148 82 -15 157 60 142 142 -5 30 -30 61 -128 160 -67 68 -133
132 -147 142 -28 20 -74 30 -107 23z"/>
<path d="M1918 1384 c-77 -41 -75 -169 2 -209 80 -41 180 17 180 105 0 88
-103 147 -182 104z"/>
</g>
</svg>
