<?xml version="1.0" standalone="no"?>
<!DOCTYPE svg PUBLIC "-//W3C//DTD SVG 20010904//EN"
 "http://www.w3.org/TR/2001/REC-SVG-20010904/DTD/svg10.dtd">
<svg version="1.0" xmlns="http://www.w3.org/2000/svg"
 width="512.000000pt" height="512.000000pt" viewBox="0 0 512.000000 512.000000"
 preserveAspectRatio="xMidYMid meet">
<metadata>
Created by potrace 1.16, written by Peter Selinger 2001-2019
</metadata>
<g transform="translate(0.000000,512.000000) scale(0.100000,-0.100000)"
fill="#000000" stroke="none">
<path d="M3370 4724 c-19 -2 -87 -9 -150 -15 -294 -27 -692 -117 -795 -180
-53 -31 -75 -85 -75 -178 l0 -81 108 0 c59 0 124 -5 144 -10 71 -20 88 -45
209 -304 63 -135 119 -246 126 -246 6 0 32 -16 58 -36 59 -45 88 -55 150 -55
62 0 91 10 149 55 61 46 101 53 158 28 56 -24 88 -73 88 -132 0 -54 -25 -95
-87 -141 -89 -67 -166 -98 -273 -108 l-68 -6 134 -285 c73 -157 147 -316 164
-354 29 -64 32 -68 58 -62 195 44 356 46 507 7 167 -43 418 -199 459 -285 32
-68 15 -144 -43 -185 -68 -49 -131 -36 -224 45 -71 62 -173 116 -267 140 -79
21 -234 23 -309 5 -52 -13 -53 -14 -47 -45 72 -350 69 -660 -9 -968 -7 -26 -5
-27 66 -48 139 -42 295 -14 527 96 499 234 842 670 964 1224 l23 105 0 876 0
876 -27 36 c-33 42 -120 78 -303 125 -315 81 -527 104 -1000 107 -209 2 -396
1 -415 -1z m859 -1033 c69 -55 110 -73 170 -73 63 0 105 17 158 63 62 54 146
47 202 -16 57 -65 51 -142 -17 -207 -181 -177 -482 -182 -670 -13 -80 72 -92
148 -35 216 52 61 137 74 192 30z"/>
<path d="M2246 3959 c-556 -72 -1376 -423 -1901 -814 -141 -105 -278 -225
-316 -277 -24 -34 -29 -51 -29 -99 0 -55 15 -90 309 -717 371 -791 362 -772
452 -908 102 -154 303 -353 459 -457 320 -211 669 -310 1040 -294 157 7 286
28 344 57 22 11 78 52 123 92 307 272 512 665 563 1078 13 108 13 311 0 420
-15 126 -65 316 -115 438 -58 142 -649 1399 -674 1433 -41 56 -102 67 -255 48z
m235 -983 c75 -17 118 -43 140 -86 37 -68 15 -152 -47 -191 -37 -22 -65 -24
-180 -14 -60 6 -77 4 -110 -13 -47 -24 -75 -54 -102 -108 -24 -47 -71 -91
-108 -100 -68 -17 -155 36 -174 108 -14 52 6 114 64 197 118 170 324 253 517
207z m-1102 -542 c64 -18 105 -56 120 -109 30 -110 -77 -210 -189 -176 -62 18
-113 13 -170 -16 -44 -23 -59 -39 -89 -93 -21 -36 -52 -75 -70 -87 -91 -61
-221 10 -221 121 0 61 53 160 125 231 133 133 313 180 494 129z m1283 -486
c73 -51 79 -126 20 -250 -197 -411 -657 -629 -1095 -518 -102 26 -145 52 -169
100 -34 67 -13 145 51 187 42 28 75 29 176 3 95 -24 242 -26 335 -4 115 27
205 79 301 174 73 72 94 100 133 181 26 53 57 106 70 118 47 44 124 48 178 9z"/>
</g>
</svg>
