<?xml version="1.0" standalone="no"?>
<!DOCTYPE svg PUBLIC "-//W3C//DTD SVG 20010904//EN"
 "http://www.w3.org/TR/2001/REC-SVG-20010904/DTD/svg10.dtd">
<svg version="1.0" xmlns="http://www.w3.org/2000/svg"
 width="512.000000pt" height="512.000000pt" viewBox="0 0 512.000000 512.000000"
 preserveAspectRatio="xMidYMid meet">
<metadata>
Created by potrace 1.16, written by Peter Selinger 2001-2019
</metadata>
<g transform="translate(0.000000,512.000000) scale(0.100000,-0.100000)"
fill="#000000" stroke="none">
<path d="M1591 5093 c-93 -94 -255 -496 -396 -984 -76 -262 -98 -379 -98 -524
-1 -227 61 -419 205 -635 75 -113 257 -301 376 -388 167 -123 381 -227 565
-274 l85 -22 6 -51 c10 -83 7 -1108 -4 -1285 -13 -210 -27 -337 -41 -378 -21
-60 -149 -104 -409 -142 -174 -25 -181 -27 -245 -55 -83 -37 -125 -96 -125
-174 0 -83 45 -153 110 -172 23 -6 349 -9 961 -7 l926 3 37 29 c45 34 66 79
66 140 0 86 -40 143 -125 181 -64 28 -71 30 -245 55 -253 36 -390 84 -409 143
-37 114 -58 742 -42 1304 6 223 12 408 14 409 2 2 43 15 92 29 421 122 805
423 995 779 128 239 164 480 111 740 -46 226 -195 699 -308 976 -64 158 -111
245 -157 295 l-33 35 -942 0 -943 0 -27 -27z m1881 -213 c108 -211 312 -821
367 -1099 29 -144 28 -271 -4 -397 -105 -423 -549 -825 -1044 -945 -109 -26
-129 -40 -141 -94 -34 -144 -38 -1358 -6 -1650 23 -202 31 -230 83 -283 81
-81 214 -126 475 -163 187 -26 247 -46 248 -81 0 -5 -400 -8 -890 -8 -489 0
-890 3 -890 8 1 35 61 55 248 81 83 12 184 30 225 40 164 42 279 120 305 207
42 141 68 749 58 1364 -4 223 -10 429 -15 458 -10 72 -31 90 -132 112 -365 79
-725 322 -925 621 -156 235 -206 468 -154 726 61 305 285 965 387 1141 l25 42
871 -2 871 -3 38 -75z"/>
<path d="M1493 3414 c-8 -22 13 -133 37 -188 45 -105 202 -306 311 -396 233
-194 440 -249 858 -229 226 11 390 78 579 234 114 94 271 292 315 397 22 53
40 146 33 174 l-6 24 -1061 0 c-966 0 -1060 -1 -1066 -16z"/>
</g>
</svg>
